<?xml version="1.0" standalone="no"?>
<!DOCTYPE svg PUBLIC "-//W3C//DTD SVG 20010904//EN"
 "http://www.w3.org/TR/2001/REC-SVG-20010904/DTD/svg10.dtd">
<svg version="1.0" xmlns="http://www.w3.org/2000/svg"
 width="285.000000pt" height="285.000000pt" viewBox="0 0 285.000000 285.000000"
 preserveAspectRatio="xMidYMid meet">
<metadata>
Created by potrace 1.11, written by Peter Selinger 2001-2013
</metadata>
<g transform="translate(0.000000,285.000000) scale(0.100000,-0.100000)"
fill="#000000" stroke="none">
<path d="M1344 2816 c-42 -42 -45 -85 -9 -155 l24 -49 7 -423 c4 -274 10 -429
17 -437 6 -7 25 -12 46 -10 l35 3 3 215 c7 618 9 642 37 698 42 84 31 143 -34
177 -49 25 -88 19 -126 -19z"/>
<path d="M1763 2658 c-40 -11 -82 -61 -127 -153 -37 -79 -65 -105 -109 -105
l-28 0 3 -122 3 -123 28 -13 c42 -20 132 -17 169 6 30 19 32 19 82 2 59 -20
80 -19 116 9 24 17 33 18 69 9 49 -12 94 2 117 38 12 18 21 21 42 15 47 -12
75 -5 102 28 25 29 30 31 91 29 58 -1 73 3 161 45 82 40 101 54 127 94 17 25
29 48 27 51 -3 2 -53 -4 -113 -13 -180 -28 -227 -18 -483 107 -194 95 -233
108 -277 96z"/>
<path d="M820 2570 c-274 -131 -364 -154 -495 -122 -33 7 -75 16 -93 19 l-33
5 15 -29 c24 -48 76 -92 130 -109 28 -9 65 -25 82 -35 22 -13 50 -19 94 -19
59 0 65 -2 90 -32 25 -30 31 -32 83 -29 47 2 57 -1 67 -18 14 -27 65 -40 117
-28 36 7 45 6 65 -12 25 -24 49 -26 113 -9 36 10 52 10 78 -1 40 -16 119 -25
151 -17 50 12 56 29 56 150 l0 113 -41 6 c-47 6 -56 16 -104 115 -20 40 -52
88 -71 107 -56 56 -85 51 -304 -55z"/>
<path d="M995 1992 c-59 -7 -133 -33 -159 -57 -78 -72 33 -201 232 -271 71
-24 150 -39 272 -49 104 -9 219 -33 254 -53 65 -38 87 -109 49 -160 -10 -15
-49 -43 -86 -62 -78 -40 -82 -58 -20 -80 l43 -14 72 50 c194 134 183 283 -28
368 -54 22 -126 34 -309 51 -122 12 -189 28 -316 76 -56 22 -79 36 -87 55 -17
36 -15 42 16 58 25 13 37 13 101 0 40 -8 84 -19 98 -25 13 -5 47 -9 74 -9 95
0 114 34 53 95 l-36 36 -96 -3 c-54 -1 -110 -4 -127 -6z"/>
<path d="M1625 1989 c-11 -6 -32 -23 -47 -37 -76 -71 17 -105 167 -62 162 46
246 12 166 -68 -23 -23 -56 -37 -143 -61 -62 -17 -128 -34 -145 -37 -18 -4
-33 -9 -33 -13 0 -3 30 -19 66 -34 66 -28 67 -28 117 -12 83 27 145 63 197
113 69 67 79 132 26 167 -53 35 -330 68 -371 44z"/>
<path d="M1099 1598 c-26 -21 -49 -75 -49 -116 0 -45 39 -113 91 -156 33 -29
147 -85 283 -141 38 -16 86 -45 107 -65 32 -31 39 -44 39 -76 0 -42 -14 -69
-63 -121 -23 -25 -28 -37 -23 -57 4 -17 13 -26 27 -26 24 0 100 76 123 124 30
64 17 158 -31 211 -34 38 -78 63 -211 118 -154 64 -176 77 -203 120 -30 48
-20 93 32 140 23 20 40 39 38 41 -2 3 -35 7 -74 10 -50 5 -75 3 -86 -6z"/>
<path d="M1380 1460 c0 -69 4 -130 8 -137 4 -6 22 -13 40 -16 l32 -5 0 138 0
138 -40 4 -40 4 0 -126z"/>
<path d="M1265 1199 c-53 -26 -92 -125 -75 -188 16 -60 53 -100 230 -251 104
-88 111 -103 82 -167 -32 -72 -36 -93 -18 -93 22 0 72 46 90 84 9 19 16 50 16
71 0 66 -33 106 -166 203 -169 123 -190 180 -101 281 l30 35 -23 18 c-25 20
-36 21 -65 7z"/>
<path d="M1385 1046 c0 -108 2 -127 19 -145 11 -12 26 -21 35 -21 14 0 16 17
16 126 0 120 -1 127 -24 145 -43 35 -46 27 -46 -105z"/>
<path d="M1320 782 c-59 -21 -90 -126 -56 -190 17 -31 165 -178 212 -210 27
-19 33 -20 44 -7 16 19 -49 107 -124 164 -83 64 -92 91 -56 158 11 21 20 45
20 54 0 21 -21 38 -40 31z"/>
<path d="M1390 674 c0 -80 9 -107 39 -123 17 -10 19 -5 20 64 1 77 -12 116
-45 129 -11 4 -14 -9 -14 -70z"/>
<path d="M1327 410 c-16 -41 -16 -41 6 -38 16 2 23 11 25 32 6 47 -13 51 -31
6z"/>
<path d="M894 286 c-35 -16 -56 -59 -43 -93 9 -24 47 -47 96 -57 45 -10 60
-31 34 -46 -14 -7 -27 -7 -38 -2 -24 13 -103 25 -103 17 0 -4 7 -22 16 -40 44
-93 234 -67 234 32 0 37 -36 83 -66 83 -29 0 -94 23 -94 33 0 6 29 7 75 2 85
-8 94 2 52 51 -19 22 -34 28 -78 31 -33 2 -66 -2 -85 -11z"/>
<path d="M1225 293 c-81 -21 -119 -117 -81 -208 31 -74 152 -102 215 -50 36
31 49 64 30 76 -23 15 -55 10 -74 -11 -39 -43 -95 -15 -95 48 0 68 42 100 86
67 19 -15 75 -20 87 -9 12 12 -23 64 -53 79 -28 15 -75 18 -115 8z"/>
<path d="M1494 286 c-34 -15 -44 -33 -44 -75 0 -36 24 -57 82 -71 55 -14 80
-36 57 -51 -20 -13 -41 -11 -63 6 -22 17 -54 19 -74 6 -12 -7 -11 -13 2 -38
20 -39 63 -57 127 -51 70 7 103 34 107 85 3 35 -1 44 -25 61 -15 10 -52 25
-80 32 -29 6 -53 16 -53 20 0 15 37 21 64 10 40 -15 86 -13 86 4 0 8 -10 27
-23 42 -19 22 -34 28 -78 31 -33 2 -66 -2 -85 -11z"/>
<path d="M1747 293 c-4 -3 -7 -69 -7 -145 l0 -138 40 0 40 0 0 71 c0 82 7 82
62 0 40 -60 55 -71 95 -71 l33 0 0 144 0 145 -40 -1 -39 0 -3 -72 -3 -71 -35
49 c-56 78 -77 96 -108 96 -16 0 -32 -3 -35 -7z"/>
</g>
</svg>
