<?xml version="1.0" standalone="no"?>
<!DOCTYPE svg PUBLIC "-//W3C//DTD SVG 20010904//EN"
 "http://www.w3.org/TR/2001/REC-SVG-20010904/DTD/svg10.dtd">
<svg version="1.0" xmlns="http://www.w3.org/2000/svg"
 width="248.000000pt" height="248.000000pt" viewBox="0 0 248.000000 248.000000"
 preserveAspectRatio="xMidYMid meet">
<metadata>
Created by potrace 1.11, written by Peter Selinger 2001-2013
</metadata>
<g transform="translate(0.000000,248.000000) scale(0.100000,-0.100000)"
fill="#000000" stroke="none">
<path d="M1188 2457 c-55 -46 -60 -85 -23 -163 25 -53 25 -56 31 -396 9 -525
8 -508 24 -518 8 -6 27 -10 43 -10 l27 0 1 88 c2 165 8 497 12 638 4 127 7
147 31 197 30 64 31 75 12 122 -25 59 -110 83 -158 42z"/>
<path d="M790 2243 c-47 -7 -95 -26 -220 -83 -69 -31 -149 -63 -179 -70 -72
-17 -175 -19 -272 -5 -44 7 -82 9 -84 5 -7 -11 48 -83 76 -101 13 -9 42 -22
64 -29 22 -7 59 -23 82 -35 34 -18 54 -21 103 -18 40 3 60 1 60 -7 0 -6 11
-22 24 -35 21 -21 31 -23 71 -18 41 5 50 2 75 -22 29 -28 75 -37 122 -24 20 5
34 2 52 -12 33 -26 63 -29 115 -11 40 13 48 13 90 -2 79 -28 172 -21 191 14 6
10 10 68 10 129 l0 110 -30 -1 c-44 -1 -69 21 -109 97 -30 58 -44 74 -81 92
-45 22 -112 33 -160 26z"/>
<path d="M1570 2234 c-55 -16 -74 -35 -116 -115 -35 -67 -62 -89 -109 -89 -23
0 -24 -1 -23 -107 0 -129 2 -137 31 -150 33 -15 128 -13 161 4 19 10 41 13 65
9 105 -19 112 -19 142 3 23 18 35 20 66 13 48 -11 99 2 113 28 9 17 21 20 75
20 62 0 65 1 80 30 15 29 18 30 83 30 41 0 75 5 87 14 11 7 48 23 82 36 64 23
114 63 139 113 l16 29 -29 -6 c-91 -18 -227 -23 -301 -12 -55 9 -96 24 -213
79 -176 83 -255 99 -349 71z"/>
<path d="M827 1618 c-42 -4 -90 -17 -123 -33 -45 -22 -54 -31 -60 -60 -15 -81
117 -191 286 -239 71 -20 82 -22 265 -42 95 -11 120 -15 172 -30 99 -27 150
-101 117 -169 -13 -29 -42 -50 -128 -95 -42 -21 -42 -35 1 -55 37 -18 37 -18
90 10 71 37 149 116 164 165 28 93 -29 173 -158 222 -68 26 -88 30 -233 43
-36 3 -76 8 -90 10 -14 2 -50 7 -80 11 -51 6 -181 44 -261 78 -31 13 -59 49
-59 76 0 5 13 16 29 25 31 16 47 14 207 -25 59 -15 142 -6 151 15 8 21 -33 81
-65 94 -28 12 -104 12 -225 -1z"/>
<path d="M1447 1611 c-51 -35 -69 -58 -63 -79 12 -37 84 -42 185 -13 106 31
155 34 181 13 18 -14 22 -25 16 -45 -10 -43 -69 -73 -213 -109 -73 -18 -133
-35 -133 -38 0 -3 32 -18 70 -33 l70 -27 78 30 c146 56 242 158 213 228 -10
23 -71 74 -71 58 0 -2 -13 -1 -29 4 -38 11 -138 22 -219 25 -43 1 -69 -3 -85
-14z"/>
<path d="M917 1210 c-58 -68 -45 -154 35 -231 51 -49 125 -90 270 -149 194
-79 230 -157 122 -270 -21 -22 -32 -42 -29 -55 2 -11 4 -22 4 -25 1 -3 10 -6
20 -7 28 -2 107 80 127 133 24 63 15 134 -23 182 -39 49 -77 74 -171 112 -209
85 -257 117 -268 177 -8 45 9 83 51 112 38 26 45 41 18 42 -10 0 -43 2 -74 5
-53 5 -57 4 -82 -26z"/>
<path d="M1212 1083 c3 -124 4 -128 28 -140 42 -21 48 -4 48 137 l1 130 -40 0
-40 0 3 -127z"/>
<path d="M1081 814 c-62 -52 -81 -134 -47 -206 18 -37 97 -117 201 -202 116
-95 136 -131 102 -181 -23 -33 -37 -84 -26 -91 18 -11 77 45 94 91 21 53 16
102 -15 145 -12 17 -65 63 -118 102 -115 86 -159 130 -171 172 -10 40 1 70 45
119 30 33 34 41 23 52 -29 27 -56 27 -88 -1z"/>
<path d="M1219 798 c-1 -5 -1 -222 0 -240 1 -19 48 -55 58 -45 3 4 6 59 7 124
1 109 -1 120 -21 141 -19 18 -41 29 -44 20z"/>
<path d="M1127 390 c-40 -35 -53 -77 -42 -137 9 -49 161 -206 223 -230 75 -28
70 -21 -84 138 -82 85 -88 103 -54 169 24 46 24 51 7 74 -13 17 -16 17 -50
-14z"/>
<path d="M1222 322 c-4 -80 5 -118 31 -135 l23 -15 -1 83 c0 75 -2 85 -24 104
-13 12 -24 21 -25 21 -1 0 -2 -26 -4 -58z"/>
<path d="M1157 41 c-9 -16 -17 -32 -17 -35 0 -10 34 6 58 27 17 16 19 23 10
29 -22 13 -33 9 -51 -21z"/>
</g>
</svg>
